<svg enable-background="new 0 0 78.04 48.74" viewBox="0 0 78.04 48.74" xmlns="http://www.w3.org/2000/svg">
<defs>
  <linearGradient id="grad1" x1="0%" y1="100%" x2="100%" y2="0%">
    <stop offset="0%" style="stop-color:rgb(255,255,0);stop-opacity:0.5"/>
    <stop offset="100%" style="stop-color:rgb(255,0,0);stop-opacity:1"/>
  </linearGradient>
</defs>
  <path d="m76.86 18.52s-3.38-13.82-20.52-11.39l-.15.07c-2.61-3.43-7.09-5.99-12.48-5.05 0 0-14.1-4.87-20.25 4.46-2.42.17-9.78 1.55-18.67 11.4 0 0-6.65 7.52-2.08 10.16 3.9 2.25 12.72-6.42 18.21-15.35-.06.36-.35 4.41-.35 4.93 0 0-24.01 25.6 10.94 29.72 33.32 3.93 33.87-24.82 25.83-26.27 0 0-3.1-.9-.37-3.33.58-.52 1-1.14 1.27-1.83.33-.82.45-1.74.4-2.71 8.67 14.07 19.94 11.61 18.22 5.19z" style="fill:url(#grad1);stroke:#2c2c2c;stroke-width:1.0969;stroke-linecap:round;stroke-linejoin:round;stroke-miterlimit:10"/>
</svg>
